<?xml version="1.0" standalone="no"?>
<!DOCTYPE svg PUBLIC "-//W3C//DTD SVG 20010904//EN"
 "http://www.w3.org/TR/2001/REC-SVG-20010904/DTD/svg10.dtd">
<svg version="1.0" xmlns="http://www.w3.org/2000/svg"
 width="34.934" height="27.721" viewBox="0 0 1098.000000 955.000000"
 preserveAspectRatio="xMidYMid meet">

<g transform="translate(0.000000,955.000000) scale(0.100000,-0.100000)"
fill="#fff" stroke="none">
<path d="M5350 9479 c-650 -525 -1206 -1176 -1633 -1914 -75 -129 -277 -520
-277 -536 0 -6 24 -21 53 -34 42 -19 3761 -1468 3945 -1537 29 -11 59 -29 67
-41 43 -68 130 -840 146 -1302 11 -321 9 -349 -24 -339 -22 7 -1116 447 -1772
714 -187 76 -354 141 -372 144 -47 11 -93 -5 -393 -134 -469 -202 -1726 -737
-1748 -744 -17 -6 -22 0 -33 46 -21 81 -18 607 4 806 53 473 175 899 378 1321
44 91 76 168 72 171 -5 4 -149 68 -322 144 -240 105 -316 134 -323 124 -18
-29 -130 -322 -178 -466 -153 -466 -255 -963 -302 -1482 -17 -191 -17 -847 0
-1035 36 -394 71 -605 99 -605 8 0 621 243 1361 540 935 375 1358 540 1384
540 26 0 457 -168 1403 -546 752 -300 1369 -543 1372 -540 18 18 36 500 37
991 1 558 -5 661 -55 1065 -31 253 -53 386 -125 753 -42 214 -73 345 -83 357
-10 12 -710 288 -1789 704 -974 377 -1783 691 -1797 699 l-25 13 128 189 c272
405 488 671 786 973 88 89 148 142 161 142 23 0 311 -288 477 -477 293 -333
557 -698 784 -1081 43 -73 87 -138 99 -145 27 -18 815 -297 837 -297 19 0 6
40 -90 280 -406 1015 -1117 1894 -2038 2518 -66 45 -124 82 -130 82 -5 -1 -43
-28 -84 -61z"/>
<path d="M12 1836 c2 -8 102 -314 223 -680 l220 -667 119 3 120 3 160 522 c89
287 164 519 167 515 3 -4 68 -212 144 -462 75 -250 146 -483 157 -517 l19 -63
117 0 117 0 227 680 226 680 -119 0 c-65 0 -119 -2 -119 -5 0 -6 -293 -994
-312 -1055 l-11 -35 -12 30 c-7 17 -81 263 -166 548 l-154 517 -112 0 -112 0
-20 -67 c-12 -38 -85 -283 -163 -546 -78 -262 -145 -474 -149 -470 -4 5 -79
249 -166 543 l-160 535 -122 3 c-102 2 -122 0 -119 -12z"/>
<path d="M2442 1668 c-45 -101 -180 -407 -300 -681 l-220 -498 121 3 120 3 65
153 65 152 341 -2 341 -3 65 -152 65 -153 122 0 123 0 -23 53 c-13 28 -146
334 -297 680 l-274 627 -117 0 -117 0 -80 -182z m321 -373 l123 -290 -250 -3
c-137 -1 -251 -1 -253 1 -2 2 49 127 113 278 64 151 120 285 126 299 6 14 12
21 14 15 3 -5 60 -140 127 -300z"/>
<path d="M3530 1170 l0 -680 115 0 115 0 0 205 0 205 195 0 c139 0 218 5 273
16 204 42 328 158 368 343 50 237 -38 444 -226 530 -114 53 -185 61 -531 61
l-309 0 0 -680z m715 442 c104 -48 140 -107 140 -232 0 -104 -26 -166 -88
-211 -69 -50 -123 -60 -339 -66 l-198 -6 0 272 0 272 218 -3 c202 -3 221 -5
267 -26z"/>
<path d="M5004 1515 c-79 -17 -130 -44 -175 -92 -61 -64 -74 -97 -74 -193 0
-167 66 -230 325 -310 122 -38 146 -49 183 -85 49 -49 32 -126 -35 -161 -85
-44 -308 0 -416 82 -18 14 -35 24 -36 23 -2 -2 -20 -37 -40 -78 -36 -70 -37
-74 -20 -93 30 -33 175 -97 256 -113 95 -19 183 -19 269 -1 119 25 193 75 237
160 23 44 27 63 27 136 0 68 -5 93 -22 126 -44 83 -120 130 -299 187 -61 19
-130 45 -153 56 -77 40 -90 118 -28 165 60 44 220 29 349 -33 l59 -28 40 78
c21 43 39 81 39 84 0 3 -33 21 -72 40 -129 60 -282 79 -414 50z"/>
<path d="M6033 1515 c-131 -29 -259 -121 -326 -236 -37 -62 -67 -187 -67 -273
1 -266 150 -459 395 -511 180 -38 366 1 502 107 29 22 53 44 53 49 0 4 -25 35
-56 68 l-56 61 -38 -30 c-21 -17 -65 -43 -97 -57 -50 -24 -71 -28 -153 -28
-76 0 -104 4 -141 21 -65 30 -123 86 -153 147 -48 94 -79 86 362 89 l387 3 -1
101 c-1 116 -15 185 -55 270 -33 71 -117 155 -184 185 -105 47 -252 60 -372
34z m242 -182 c69 -23 139 -95 159 -164 29 -98 56 -89 -279 -89 -182 0 -295 4
-295 10 0 5 10 35 21 67 29 75 95 146 163 172 64 25 165 27 231 4z"/>
<path d="M7185 1520 c-254 -55 -405 -247 -405 -515 0 -333 233 -546 572 -521
145 10 254 56 338 141 l44 45 -60 61 -61 61 -53 -40 c-72 -54 -144 -76 -250
-76 -103 0 -158 23 -220 91 -55 59 -81 119 -87 208 -11 139 47 259 155 323 44
25 55 27 162 27 107 0 119 -2 170 -28 30 -16 67 -40 83 -55 16 -15 30 -22 35
-16 5 5 33 37 62 72 l53 63 -33 34 c-39 40 -124 87 -200 110 -64 19 -247 28
-305 15z"/>
<path d="M9702 1514 c-92 -24 -157 -69 -214 -148 l-28 -39 0 96 0 97 -110 0
-110 0 0 -515 0 -515 109 0 110 0 3 298 c3 288 4 299 27 350 46 101 144 165
274 179 l57 6 0 103 0 104 -32 -1 c-18 0 -57 -7 -86 -15z"/>
<path d="M10303 1515 c-131 -29 -259 -121 -326 -236 -37 -62 -67 -187 -67
-273 1 -266 150 -459 395 -511 180 -38 366 1 502 107 29 22 53 44 53 49 0 4
-25 35 -56 68 l-56 61 -38 -30 c-21 -17 -65 -43 -97 -57 -50 -24 -71 -28 -153
-28 -76 0 -104 4 -141 21 -65 30 -123 86 -153 147 -48 94 -79 86 362 89 l387
3 -1 101 c-1 116 -15 185 -55 270 -33 71 -117 155 -184 185 -105 47 -252 60
-372 34z m242 -182 c69 -23 139 -95 159 -164 29 -98 56 -89 -279 -89 -182 0
-295 4 -295 10 0 5 10 35 21 67 29 75 95 146 163 172 64 25 165 27 231 4z"/>
<path d="M7930 1170 c0 -380 4 -421 53 -513 37 -71 91 -119 166 -149 81 -32
251 -31 335 2 62 24 144 91 177 145 l19 30 0 -97 0 -98 110 0 110 0 0 515 0
515 -110 0 -110 0 0 -283 c0 -315 -5 -348 -63 -433 -109 -158 -371 -147 -443
18 -17 38 -19 78 -22 371 l-3 327 -110 0 -109 0 0 -350z"/>
</g>
</svg>
